<mxfile host="app.diagrams.net" agent="Mozilla/5.0 (Windows NT 10.0; Win64; x64) AppleWebKit/537.36 (KHTML, like Gecko) Chrome/129.0.0.0 Safari/537.36 Edg/129.0.0.0" version="24.7.16">
  <diagram name="Page-1" id="aCP7I57G33tlOd_e8Llg">
    <mxGraphModel grid="1" page="1" gridSize="10" guides="1" tooltips="1" connect="1" arrows="1" fold="1" pageScale="1" pageWidth="850" pageHeight="1100" math="0" shadow="0">
      <root>
        <mxCell id="0" />
        <mxCell id="1" parent="0" />
        <mxCell id="giYhcMrdGrvmkpozPpdE-15" style="edgeStyle=none;shape=connector;rounded=0;orthogonalLoop=1;jettySize=auto;html=1;strokeColor=default;align=center;verticalAlign=middle;fontFamily=Helvetica;fontSize=11;fontColor=default;labelBackgroundColor=default;endArrow=classic;" edge="1" parent="1" source="94CNcR7i5TfGNn7Sc9TL-45" target="94CNcR7i5TfGNn7Sc9TL-72">
          <mxGeometry relative="1" as="geometry" />
        </mxCell>
        <mxCell id="giYhcMrdGrvmkpozPpdE-16" style="edgeStyle=none;shape=connector;rounded=0;orthogonalLoop=1;jettySize=auto;html=1;exitX=0.5;exitY=0.5;exitDx=0;exitDy=0;exitPerimeter=0;strokeColor=default;align=center;verticalAlign=middle;fontFamily=Helvetica;fontSize=11;fontColor=default;labelBackgroundColor=default;endArrow=classic;" edge="1" parent="1" source="94CNcR7i5TfGNn7Sc9TL-45" target="94CNcR7i5TfGNn7Sc9TL-58">
          <mxGeometry relative="1" as="geometry" />
        </mxCell>
        <mxCell id="giYhcMrdGrvmkpozPpdE-18" style="edgeStyle=none;shape=connector;rounded=0;orthogonalLoop=1;jettySize=auto;html=1;exitX=0.5;exitY=0.5;exitDx=0;exitDy=0;exitPerimeter=0;strokeColor=default;align=center;verticalAlign=middle;fontFamily=Helvetica;fontSize=11;fontColor=default;labelBackgroundColor=default;endArrow=classic;" edge="1" parent="1" source="94CNcR7i5TfGNn7Sc9TL-45" target="94CNcR7i5TfGNn7Sc9TL-57">
          <mxGeometry relative="1" as="geometry" />
        </mxCell>
        <mxCell id="giYhcMrdGrvmkpozPpdE-29" style="edgeStyle=none;shape=connector;rounded=0;orthogonalLoop=1;jettySize=auto;html=1;exitX=0.5;exitY=0.5;exitDx=0;exitDy=0;exitPerimeter=0;strokeColor=default;align=center;verticalAlign=middle;fontFamily=Helvetica;fontSize=11;fontColor=default;labelBackgroundColor=default;endArrow=classic;" edge="1" parent="1" source="94CNcR7i5TfGNn7Sc9TL-45" target="94CNcR7i5TfGNn7Sc9TL-60">
          <mxGeometry relative="1" as="geometry" />
        </mxCell>
        <mxCell id="94CNcR7i5TfGNn7Sc9TL-45" value="Student" style="shape=umlActor;verticalLabelPosition=bottom;verticalAlign=top;html=1;outlineConnect=0;" vertex="1" parent="1">
          <mxGeometry x="200" y="380" width="30" height="60" as="geometry" />
        </mxCell>
        <mxCell id="giYhcMrdGrvmkpozPpdE-27" style="edgeStyle=none;shape=connector;rounded=0;orthogonalLoop=1;jettySize=auto;html=1;exitX=0.5;exitY=0.5;exitDx=0;exitDy=0;exitPerimeter=0;strokeColor=default;align=center;verticalAlign=middle;fontFamily=Helvetica;fontSize=11;fontColor=default;labelBackgroundColor=default;endArrow=classic;" edge="1" parent="1" source="94CNcR7i5TfGNn7Sc9TL-47" target="94CNcR7i5TfGNn7Sc9TL-62">
          <mxGeometry relative="1" as="geometry" />
        </mxCell>
        <mxCell id="giYhcMrdGrvmkpozPpdE-28" style="edgeStyle=none;shape=connector;rounded=0;orthogonalLoop=1;jettySize=auto;html=1;exitX=0.5;exitY=0.5;exitDx=0;exitDy=0;exitPerimeter=0;strokeColor=default;align=center;verticalAlign=middle;fontFamily=Helvetica;fontSize=11;fontColor=default;labelBackgroundColor=default;endArrow=classic;" edge="1" parent="1" source="94CNcR7i5TfGNn7Sc9TL-47" target="94CNcR7i5TfGNn7Sc9TL-63">
          <mxGeometry relative="1" as="geometry" />
        </mxCell>
        <mxCell id="94CNcR7i5TfGNn7Sc9TL-47" value="IT Department" style="shape=umlActor;verticalLabelPosition=bottom;verticalAlign=top;html=1;outlineConnect=0;" vertex="1" parent="1">
          <mxGeometry x="200" y="820" width="30" height="60" as="geometry" />
        </mxCell>
        <mxCell id="giYhcMrdGrvmkpozPpdE-31" style="edgeStyle=none;shape=connector;rounded=0;orthogonalLoop=1;jettySize=auto;html=1;exitX=0.5;exitY=0.5;exitDx=0;exitDy=0;exitPerimeter=0;strokeColor=default;align=center;verticalAlign=middle;fontFamily=Helvetica;fontSize=11;fontColor=default;labelBackgroundColor=default;endArrow=classic;" edge="1" parent="1" source="94CNcR7i5TfGNn7Sc9TL-48" target="94CNcR7i5TfGNn7Sc9TL-69">
          <mxGeometry relative="1" as="geometry" />
        </mxCell>
        <mxCell id="giYhcMrdGrvmkpozPpdE-32" style="edgeStyle=none;shape=connector;rounded=0;orthogonalLoop=1;jettySize=auto;html=1;exitX=0.5;exitY=0.5;exitDx=0;exitDy=0;exitPerimeter=0;strokeColor=default;align=center;verticalAlign=middle;fontFamily=Helvetica;fontSize=11;fontColor=default;labelBackgroundColor=default;endArrow=classic;" edge="1" parent="1" source="94CNcR7i5TfGNn7Sc9TL-48" target="94CNcR7i5TfGNn7Sc9TL-68">
          <mxGeometry relative="1" as="geometry" />
        </mxCell>
        <mxCell id="giYhcMrdGrvmkpozPpdE-33" style="edgeStyle=none;shape=connector;rounded=0;orthogonalLoop=1;jettySize=auto;html=1;exitX=0.5;exitY=0.5;exitDx=0;exitDy=0;exitPerimeter=0;strokeColor=default;align=center;verticalAlign=middle;fontFamily=Helvetica;fontSize=11;fontColor=default;labelBackgroundColor=default;endArrow=classic;" edge="1" parent="1" source="94CNcR7i5TfGNn7Sc9TL-48" target="94CNcR7i5TfGNn7Sc9TL-67">
          <mxGeometry relative="1" as="geometry" />
        </mxCell>
        <mxCell id="giYhcMrdGrvmkpozPpdE-34" style="edgeStyle=none;shape=connector;rounded=0;orthogonalLoop=1;jettySize=auto;html=1;exitX=0.5;exitY=0.5;exitDx=0;exitDy=0;exitPerimeter=0;strokeColor=default;align=center;verticalAlign=middle;fontFamily=Helvetica;fontSize=11;fontColor=default;labelBackgroundColor=default;endArrow=classic;" edge="1" parent="1" source="94CNcR7i5TfGNn7Sc9TL-48" target="94CNcR7i5TfGNn7Sc9TL-66">
          <mxGeometry relative="1" as="geometry" />
        </mxCell>
        <mxCell id="94CNcR7i5TfGNn7Sc9TL-48" value="SPSO" style="shape=umlActor;verticalLabelPosition=bottom;verticalAlign=top;html=1;outlineConnect=0;" vertex="1" parent="1">
          <mxGeometry x="750" y="775" width="30" height="60" as="geometry" />
        </mxCell>
        <mxCell id="giYhcMrdGrvmkpozPpdE-25" style="edgeStyle=none;shape=connector;rounded=0;orthogonalLoop=1;jettySize=auto;html=1;exitX=0.5;exitY=0.5;exitDx=0;exitDy=0;exitPerimeter=0;strokeColor=default;align=center;verticalAlign=middle;fontFamily=Helvetica;fontSize=11;fontColor=default;labelBackgroundColor=default;endArrow=classic;" edge="1" parent="1" source="94CNcR7i5TfGNn7Sc9TL-49" target="94CNcR7i5TfGNn7Sc9TL-64">
          <mxGeometry relative="1" as="geometry" />
        </mxCell>
        <mxCell id="94CNcR7i5TfGNn7Sc9TL-49" value="University&#39;s SSO service" style="shape=umlActor;verticalLabelPosition=bottom;verticalAlign=top;html=1;outlineConnect=0;" vertex="1" parent="1">
          <mxGeometry x="750" y="545" width="30" height="60" as="geometry" />
        </mxCell>
        <mxCell id="94CNcR7i5TfGNn7Sc9TL-50" value="Upload documents" style="ellipse;whiteSpace=wrap;html=1;fontSize=8;" vertex="1" parent="1">
          <mxGeometry x="400" y="200" width="90" height="50" as="geometry" />
        </mxCell>
        <mxCell id="94CNcR7i5TfGNn7Sc9TL-56" value="Select printer" style="ellipse;whiteSpace=wrap;html=1;fontSize=8;" vertex="1" parent="1">
          <mxGeometry x="400" y="480" width="90" height="50" as="geometry" />
        </mxCell>
        <mxCell id="giYhcMrdGrvmkpozPpdE-22" style="edgeStyle=none;shape=connector;rounded=0;orthogonalLoop=1;jettySize=auto;html=1;exitX=1;exitY=0.5;exitDx=0;exitDy=0;strokeColor=default;align=center;verticalAlign=middle;fontFamily=Helvetica;fontSize=11;fontColor=default;labelBackgroundColor=default;endArrow=classic;" edge="1" parent="1" source="94CNcR7i5TfGNn7Sc9TL-57" target="94CNcR7i5TfGNn7Sc9TL-71">
          <mxGeometry relative="1" as="geometry" />
        </mxCell>
        <mxCell id="94CNcR7i5TfGNn7Sc9TL-57" value="Buy additional printing pages" style="ellipse;whiteSpace=wrap;html=1;fontSize=8;" vertex="1" parent="1">
          <mxGeometry x="400" y="270" width="90" height="50" as="geometry" />
        </mxCell>
        <mxCell id="94CNcR7i5TfGNn7Sc9TL-58" value="View printing&amp;nbsp;&lt;div&gt;history&lt;/div&gt;" style="ellipse;whiteSpace=wrap;html=1;fontSize=8;" vertex="1" parent="1">
          <mxGeometry x="400" y="340" width="90" height="50" as="geometry" />
        </mxCell>
        <mxCell id="94CNcR7i5TfGNn7Sc9TL-59" value="Configure printing properties" style="ellipse;whiteSpace=wrap;html=1;fontSize=8;" vertex="1" parent="1">
          <mxGeometry x="400" y="410" width="90" height="50" as="geometry" />
        </mxCell>
        <mxCell id="giYhcMrdGrvmkpozPpdE-35" style="edgeStyle=none;shape=connector;rounded=0;orthogonalLoop=1;jettySize=auto;html=1;exitX=1;exitY=0.5;exitDx=0;exitDy=0;strokeColor=default;align=center;verticalAlign=middle;fontFamily=Helvetica;fontSize=11;fontColor=default;labelBackgroundColor=default;endArrow=classic;" edge="1" parent="1" source="94CNcR7i5TfGNn7Sc9TL-60" target="94CNcR7i5TfGNn7Sc9TL-48">
          <mxGeometry relative="1" as="geometry" />
        </mxCell>
        <mxCell id="94CNcR7i5TfGNn7Sc9TL-60" value="Tehcnical support" style="ellipse;whiteSpace=wrap;html=1;fontSize=8;" vertex="1" parent="1">
          <mxGeometry x="390" y="710" width="90" height="50" as="geometry" />
        </mxCell>
        <mxCell id="94CNcR7i5TfGNn7Sc9TL-62" value="Perform data backup and recovery" style="ellipse;whiteSpace=wrap;html=1;fontSize=8;" vertex="1" parent="1">
          <mxGeometry x="350" y="850" width="90" height="50" as="geometry" />
        </mxCell>
        <mxCell id="94CNcR7i5TfGNn7Sc9TL-63" value="Manage system security" style="ellipse;whiteSpace=wrap;html=1;fontSize=8;" vertex="1" parent="1">
          <mxGeometry x="350" y="920" width="90" height="50" as="geometry" />
        </mxCell>
        <mxCell id="94CNcR7i5TfGNn7Sc9TL-64" value="Authenticate users" style="ellipse;whiteSpace=wrap;html=1;fontSize=8;" vertex="1" parent="1">
          <mxGeometry x="580" y="510" width="90" height="50" as="geometry" />
        </mxCell>
        <mxCell id="94CNcR7i5TfGNn7Sc9TL-65" value="Set page quota reset date" style="ellipse;whiteSpace=wrap;html=1;fontSize=8;" vertex="1" parent="1">
          <mxGeometry x="450" y="650" width="90" height="50" as="geometry" />
        </mxCell>
        <mxCell id="94CNcR7i5TfGNn7Sc9TL-66" value="Generate and access reports" style="ellipse;whiteSpace=wrap;html=1;fontSize=8;" vertex="1" parent="1">
          <mxGeometry x="570" y="710" width="90" height="50" as="geometry" />
        </mxCell>
        <mxCell id="94CNcR7i5TfGNn7Sc9TL-67" value="Change system configuration" style="ellipse;whiteSpace=wrap;html=1;fontSize=8;" vertex="1" parent="1">
          <mxGeometry x="570" y="780" width="90" height="50" as="geometry" />
        </mxCell>
        <mxCell id="94CNcR7i5TfGNn7Sc9TL-68" value="View student printing logs" style="ellipse;whiteSpace=wrap;html=1;fontSize=8;" vertex="1" parent="1">
          <mxGeometry x="570" y="850" width="90" height="50" as="geometry" />
        </mxCell>
        <mxCell id="94CNcR7i5TfGNn7Sc9TL-69" value="Manage printers" style="ellipse;whiteSpace=wrap;html=1;fontSize=8;" vertex="1" parent="1">
          <mxGeometry x="570" y="920" width="90" height="50" as="geometry" />
        </mxCell>
        <mxCell id="94CNcR7i5TfGNn7Sc9TL-70" value="Process payment" style="ellipse;whiteSpace=wrap;html=1;fontSize=8;" vertex="1" parent="1">
          <mxGeometry x="560" y="320" width="90" height="50" as="geometry" />
        </mxCell>
        <mxCell id="giYhcMrdGrvmkpozPpdE-23" style="edgeStyle=none;shape=connector;rounded=0;orthogonalLoop=1;jettySize=auto;html=1;exitX=0.5;exitY=0.5;exitDx=0;exitDy=0;exitPerimeter=0;strokeColor=default;align=center;verticalAlign=middle;fontFamily=Helvetica;fontSize=11;fontColor=default;labelBackgroundColor=default;endArrow=classic;" edge="1" parent="1" source="94CNcR7i5TfGNn7Sc9TL-71" target="94CNcR7i5TfGNn7Sc9TL-70">
          <mxGeometry relative="1" as="geometry" />
        </mxCell>
        <mxCell id="94CNcR7i5TfGNn7Sc9TL-71" value="BKPay" style="shape=umlActor;verticalLabelPosition=bottom;verticalAlign=top;html=1;outlineConnect=0;" vertex="1" parent="1">
          <mxGeometry x="750" y="265" width="30" height="60" as="geometry" />
        </mxCell>
        <mxCell id="94CNcR7i5TfGNn7Sc9TL-72" value="Log in the system" style="ellipse;whiteSpace=wrap;html=1;fontSize=8;" vertex="1" parent="1">
          <mxGeometry x="400" y="550" width="90" height="50" as="geometry" />
        </mxCell>
        <mxCell id="giYhcMrdGrvmkpozPpdE-9" value="" style="endArrow=classic;html=1;rounded=0;strokeColor=default;align=center;verticalAlign=middle;fontFamily=Helvetica;fontSize=11;fontColor=default;labelBackgroundColor=default;" edge="1" parent="1" source="94CNcR7i5TfGNn7Sc9TL-45" target="giYhcMrdGrvmkpozPpdE-10">
          <mxGeometry width="50" height="50" relative="1" as="geometry">
            <mxPoint x="220" y="325" as="sourcePoint" />
            <mxPoint x="270" y="275" as="targetPoint" />
          </mxGeometry>
        </mxCell>
        <mxCell id="giYhcMrdGrvmkpozPpdE-19" style="edgeStyle=none;shape=connector;rounded=0;orthogonalLoop=1;jettySize=auto;html=1;exitX=0.5;exitY=1;exitDx=0;exitDy=0;entryX=0;entryY=0.5;entryDx=0;entryDy=0;strokeColor=default;align=center;verticalAlign=middle;fontFamily=Helvetica;fontSize=11;fontColor=default;labelBackgroundColor=default;endArrow=classic;dashed=1;" edge="1" parent="1" source="giYhcMrdGrvmkpozPpdE-10" target="94CNcR7i5TfGNn7Sc9TL-56">
          <mxGeometry relative="1" as="geometry" />
        </mxCell>
        <mxCell id="giYhcMrdGrvmkpozPpdE-10" value="print a document" style="ellipse;whiteSpace=wrap;html=1;fontSize=8;" vertex="1" parent="1">
          <mxGeometry x="270" y="210" width="90" height="50" as="geometry" />
        </mxCell>
        <mxCell id="giYhcMrdGrvmkpozPpdE-20" style="edgeStyle=none;shape=connector;rounded=0;orthogonalLoop=1;jettySize=auto;html=1;strokeColor=default;align=center;verticalAlign=middle;fontFamily=Helvetica;fontSize=11;fontColor=default;labelBackgroundColor=default;endArrow=classic;dashed=1;" edge="1" parent="1" source="giYhcMrdGrvmkpozPpdE-10" target="94CNcR7i5TfGNn7Sc9TL-59">
          <mxGeometry relative="1" as="geometry">
            <mxPoint x="325" y="270" as="sourcePoint" />
            <mxPoint x="410" y="515" as="targetPoint" />
          </mxGeometry>
        </mxCell>
        <mxCell id="giYhcMrdGrvmkpozPpdE-21" style="edgeStyle=none;shape=connector;rounded=0;orthogonalLoop=1;jettySize=auto;html=1;strokeColor=default;align=center;verticalAlign=middle;fontFamily=Helvetica;fontSize=11;fontColor=default;labelBackgroundColor=default;endArrow=classic;dashed=1;" edge="1" parent="1" source="giYhcMrdGrvmkpozPpdE-10" target="94CNcR7i5TfGNn7Sc9TL-50">
          <mxGeometry relative="1" as="geometry">
            <mxPoint x="340" y="269" as="sourcePoint" />
            <mxPoint x="440" y="421" as="targetPoint" />
          </mxGeometry>
        </mxCell>
        <mxCell id="giYhcMrdGrvmkpozPpdE-24" style="edgeStyle=none;shape=connector;rounded=0;orthogonalLoop=1;jettySize=auto;html=1;exitX=1;exitY=0.5;exitDx=0;exitDy=0;entryX=0.5;entryY=0.5;entryDx=0;entryDy=0;entryPerimeter=0;strokeColor=default;align=center;verticalAlign=middle;fontFamily=Helvetica;fontSize=11;fontColor=default;labelBackgroundColor=default;endArrow=classic;" edge="1" parent="1" source="94CNcR7i5TfGNn7Sc9TL-72" target="94CNcR7i5TfGNn7Sc9TL-49">
          <mxGeometry relative="1" as="geometry" />
        </mxCell>
        <mxCell id="giYhcMrdGrvmkpozPpdE-26" style="edgeStyle=none;shape=connector;rounded=0;orthogonalLoop=1;jettySize=auto;html=1;exitX=0;exitY=0.5;exitDx=0;exitDy=0;entryX=0.5;entryY=0.5;entryDx=0;entryDy=0;entryPerimeter=0;strokeColor=default;align=center;verticalAlign=middle;fontFamily=Helvetica;fontSize=11;fontColor=default;labelBackgroundColor=default;endArrow=classic;" edge="1" parent="1" source="94CNcR7i5TfGNn7Sc9TL-60" target="94CNcR7i5TfGNn7Sc9TL-47">
          <mxGeometry relative="1" as="geometry" />
        </mxCell>
        <mxCell id="giYhcMrdGrvmkpozPpdE-37" style="edgeStyle=none;shape=connector;rounded=0;orthogonalLoop=1;jettySize=auto;html=1;strokeColor=default;align=center;verticalAlign=middle;fontFamily=Helvetica;fontSize=11;fontColor=default;labelBackgroundColor=default;endArrow=classic;dashed=1;" edge="1" parent="1" source="94CNcR7i5TfGNn7Sc9TL-65" target="94CNcR7i5TfGNn7Sc9TL-67">
          <mxGeometry relative="1" as="geometry">
            <mxPoint x="562.5" y="542.5" as="sourcePoint" />
            <mxPoint x="647.5" y="787.5" as="targetPoint" />
          </mxGeometry>
        </mxCell>
        <mxCell id="giYhcMrdGrvmkpozPpdE-38" value="Set file type" style="ellipse;whiteSpace=wrap;html=1;fontSize=8;" vertex="1" parent="1">
          <mxGeometry x="440" y="770" width="90" height="50" as="geometry" />
        </mxCell>
        <mxCell id="giYhcMrdGrvmkpozPpdE-39" value="Set number of pages" style="ellipse;whiteSpace=wrap;html=1;fontSize=8;" vertex="1" parent="1">
          <mxGeometry x="450" y="835" width="90" height="50" as="geometry" />
        </mxCell>
        <mxCell id="giYhcMrdGrvmkpozPpdE-40" style="edgeStyle=none;shape=connector;rounded=0;orthogonalLoop=1;jettySize=auto;html=1;strokeColor=default;align=center;verticalAlign=middle;fontFamily=Helvetica;fontSize=11;fontColor=default;labelBackgroundColor=default;endArrow=classic;dashed=1;" edge="1" parent="1" source="giYhcMrdGrvmkpozPpdE-38" target="94CNcR7i5TfGNn7Sc9TL-67">
          <mxGeometry relative="1" as="geometry">
            <mxPoint x="526" y="707" as="sourcePoint" />
            <mxPoint x="604" y="793" as="targetPoint" />
          </mxGeometry>
        </mxCell>
        <mxCell id="giYhcMrdGrvmkpozPpdE-41" style="edgeStyle=none;shape=connector;rounded=0;orthogonalLoop=1;jettySize=auto;html=1;strokeColor=default;align=center;verticalAlign=middle;fontFamily=Helvetica;fontSize=11;fontColor=default;labelBackgroundColor=default;endArrow=classic;dashed=1;" edge="1" parent="1" source="giYhcMrdGrvmkpozPpdE-39" target="94CNcR7i5TfGNn7Sc9TL-67">
          <mxGeometry relative="1" as="geometry">
            <mxPoint x="536" y="717" as="sourcePoint" />
            <mxPoint x="614" y="803" as="targetPoint" />
          </mxGeometry>
        </mxCell>
        <mxCell id="giYhcMrdGrvmkpozPpdE-45" style="edgeStyle=none;shape=connector;rounded=0;orthogonalLoop=1;jettySize=auto;html=1;exitX=0.5;exitY=0.5;exitDx=0;exitDy=0;exitPerimeter=0;strokeColor=default;align=center;verticalAlign=middle;fontFamily=Helvetica;fontSize=11;fontColor=default;labelBackgroundColor=default;endArrow=classic;" edge="1" parent="1" source="giYhcMrdGrvmkpozPpdE-42" target="giYhcMrdGrvmkpozPpdE-43">
          <mxGeometry relative="1" as="geometry" />
        </mxCell>
        <mxCell id="giYhcMrdGrvmkpozPpdE-42" value="Printers" style="shape=umlActor;verticalLabelPosition=bottom;verticalAlign=top;html=1;outlineConnect=0;" vertex="1" parent="1">
          <mxGeometry x="720" y="110" width="30" height="60" as="geometry" />
        </mxCell>
        <mxCell id="giYhcMrdGrvmkpozPpdE-43" value="print" style="ellipse;whiteSpace=wrap;html=1;fontSize=8;" vertex="1" parent="1">
          <mxGeometry x="580" y="220" width="90" height="50" as="geometry" />
        </mxCell>
        <mxCell id="giYhcMrdGrvmkpozPpdE-44" style="edgeStyle=none;shape=connector;rounded=0;orthogonalLoop=1;jettySize=auto;html=1;exitX=0.5;exitY=0;exitDx=0;exitDy=0;entryX=0.5;entryY=0.5;entryDx=0;entryDy=0;entryPerimeter=0;strokeColor=default;align=center;verticalAlign=middle;fontFamily=Helvetica;fontSize=11;fontColor=default;labelBackgroundColor=default;endArrow=classic;" edge="1" parent="1" source="giYhcMrdGrvmkpozPpdE-10" target="giYhcMrdGrvmkpozPpdE-42">
          <mxGeometry relative="1" as="geometry" />
        </mxCell>
      </root>
    </mxGraphModel>
  </diagram>
</mxfile>
